<?xml version="1.0" standalone="no"?>
<!DOCTYPE svg PUBLIC "-//W3C//DTD SVG 20010904//EN"
 "http://www.w3.org/TR/2001/REC-SVG-20010904/DTD/svg10.dtd">
<svg version="1.0" xmlns="http://www.w3.org/2000/svg"
 width="2000.000000pt" height="707.000000pt" viewBox="0 0 2000.000000 707.000000"
 preserveAspectRatio="xMidYMid meet">

<g transform="translate(0.000000,707.000000) scale(0.100000,-0.100000)"
fill="#000000" stroke="none">
<path d="M800 7056 c-93 -25 -156 -82 -185 -167 -9 -28 -44 -384 -95 -964
-128 -1464 -314 -3586 -396 -4520 -69 -789 -75 -867 -64 -944 20 -147 69 -250
157 -333 55 -51 100 -76 183 -104 52 -18 119 -19 1310 -22 868 -2 1270 1 1306
8 103 22 193 112 209 209 3 20 23 243 45 496 22 253 43 484 46 512 l6 53 -961
0 -961 0 0 35 c0 18 40 494 90 1057 49 563 144 1644 210 2403 66 759 138 1582
160 1829 22 247 40 453 40 457 0 15 -1047 10 -1100 -5z"/>
<path d="M3437 7054 c-366 -66 -604 -283 -682 -618 -8 -34 -41 -370 -75 -748
-33 -379 -87 -995 -120 -1370 -33 -376 -78 -892 -101 -1148 -47 -530 -47 -617
-4 -765 35 -120 85 -206 164 -285 74 -73 150 -117 261 -152 l75 -23 1905 -3
c2106 -3 1991 -6 2170 61 117 44 189 88 273 167 122 113 198 253 231 427 9 43
29 236 45 428 42 485 203 2324 252 2875 45 512 44 565 -11 730 -40 119 -73
174 -154 255 -81 80 -158 125 -273 158 l-78 22 -1900 2 c-1608 1 -1912 -1
-1978 -13z m3103 -1271 c0 -5 -47 -537 -104 -1183 -79 -896 -107 -1184 -120
-1215 -22 -53 -69 -101 -131 -133 l-50 -27 -1192 -3 -1193 -2 0 30 c0 17 13
182 30 368 16 185 61 699 100 1142 39 443 75 821 81 840 16 52 56 105 99 134
86 57 33 55 1308 55 644 1 1172 -2 1172 -6z"/>
<path d="M9495 7059 c-199 -29 -370 -113 -501 -243 -116 -116 -182 -245 -213
-416 -6 -36 -31 -294 -56 -575 -24 -280 -97 -1104 -161 -1830 -85 -975 -114
-1341 -110 -1401 19 -266 146 -483 337 -576 158 -78 41 -72 1497 -75 l1302 -4
0 -25 c0 -75 -33 -387 -46 -433 -19 -67 -88 -139 -159 -167 -48 -18 -90 -19
-909 -22 -473 -1 -861 -3 -862 -5 -1 -1 -23 -240 -49 -530 -44 -507 -45 -530
-30 -583 19 -66 71 -128 123 -146 30 -10 268 -13 1197 -13 1086 0 1165 1 1245
18 363 79 601 314 660 652 6 39 35 337 63 664 42 481 55 595 67 601 8 4 51 17
95 29 237 64 406 198 510 403 72 143 78 184 160 1133 41 473 114 1307 162
1854 82 934 86 999 75 1086 -40 314 -196 510 -469 588 l-78 22 -1895 1 c-1045
1 -1922 -2 -1955 -7z m3075 -1286 c0 -37 -200 -2310 -206 -2338 -18 -91 -95
-173 -188 -200 -71 -21 -2396 -23 -2396 -2 0 8 27 319 60 693 32 373 77 891
100 1149 22 259 48 494 56 523 25 88 103 158 201 181 21 5 563 9 1206 10 1097
1 1167 0 1167 -16z"/>
<path d="M15508 7055 c-381 -64 -639 -312 -697 -670 -6 -39 -54 -563 -106
-1165 -52 -602 -104 -1194 -115 -1315 -100 -1106 -111 -1255 -100 -1343 43
-357 233 -566 556 -612 57 -8 608 -10 1969 -8 l1890 3 85 23 c109 29 269 107
345 169 124 101 215 249 255 413 14 62 46 384 115 1170 52 597 125 1420 161
1830 72 816 75 898 34 1040 -62 218 -186 359 -376 429 -44 16 -116 34 -158 40
-121 17 -3756 13 -3858 -4z m3092 -1299 c0 -75 -201 -2313 -210 -2348 -17 -60
-69 -119 -135 -153 l-59 -30 -1193 -3 -1194 -2 6 57 c4 32 51 562 104 1178 88
1006 100 1126 120 1170 35 80 92 127 181 151 34 10 323 13 1213 13 l1167 1 0
-34z"/>
</g>
</svg>
